<svg xmlns="http://www.w3.org/2000/svg" version="1.1" xmlns:xlink="http://www.w3.org/1999/xlink" xmlns:svgjs="http://svgjs.com/svgjs" width="1440" height="560" preserveAspectRatio="none" viewBox="0 0 1440 560"><g mask="url(&quot;#SvgjsMask1000&quot;)" fill="none"><rect width="1440" height="560" x="0" y="0" fill="#0e2a47"></rect><path d="M753.46 191.02L753.46 194.74L780.95 194.74L780.95 191.02zM774.35 192.88 a6.6 6.6 0 1 0 13.2 0 a6.6 6.6 0 1 0 -13.2 0zM748.76 218.39L747.33 221.84L775.25 233.4L776.68 229.96zM769.36 231.68 a6.6 6.6 0 1 0 13.2 0 a6.6 6.6 0 1 0 -13.2 0zM733.93 241.89L731.3 244.52L750.79 264.01L753.42 261.37zM745.5 262.69 a6.6 6.6 0 1 0 13.2 0 a6.6 6.6 0 1 0 -13.2 0zM711.25 257.92L707.81 259.35L717.84 283.57L721.28 282.14zM712.96 282.86 a6.6 6.6 0 1 0 13.2 0 a6.6 6.6 0 1 0 -13.2 0zM684.16 264.05L680.43 264.05L680.43 281.02L684.16 281.02zM675.69 281.02 a6.6 6.6 0 1 0 13.2 0 a6.6 6.6 0 1 0 -13.2 0zM656.78 259.35L653.33 257.92L644.23 279.91L647.67 281.33zM639.35 280.62 a6.6 6.6 0 1 0 13.2 0 a6.6 6.6 0 1 0 -13.2 0zM633.29 244.52L630.65 241.89L607.8 264.74L610.43 267.38zM602.51 266.06 a6.6 6.6 0 1 0 13.2 0 a6.6 6.6 0 1 0 -13.2 0zM617.25 221.84L615.83 218.39L584.19 231.5L585.62 234.94zM578.31 233.22 a6.6 6.6 0 1 0 13.2 0 a6.6 6.6 0 1 0 -13.2 0zM611.12 194.74L611.12 191.02L593.38 191.02L593.38 194.74zM586.78 192.88 a6.6 6.6 0 1 0 13.2 0 a6.6 6.6 0 1 0 -13.2 0zM615.83 167.37L617.25 163.92L599.2 156.45L597.77 159.89zM591.89 158.17 a6.6 6.6 0 1 0 13.2 0 a6.6 6.6 0 1 0 -13.2 0zM630.65 143.87L633.29 141.24L620.15 128.11L617.52 130.74zM612.24 129.43 a6.6 6.6 0 1 0 13.2 0 a6.6 6.6 0 1 0 -13.2 0zM653.33 127.84L656.78 126.42L652.04 114.99L648.6 116.41zM643.72 115.7 a6.6 6.6 0 1 0 13.2 0 a6.6 6.6 0 1 0 -13.2 0zM680.43 121.71L684.16 121.71L684.16 99.22L680.43 99.22zM675.69 99.22 a6.6 6.6 0 1 0 13.2 0 a6.6 6.6 0 1 0 -13.2 0zM707.81 126.42L711.25 127.84L719.53 107.86L716.08 106.43zM711.2 107.14 a6.6 6.6 0 1 0 13.2 0 a6.6 6.6 0 1 0 -13.2 0zM731.3 141.24L733.93 143.87L749.79 128.02L747.15 125.38zM741.87 126.7 a6.6 6.6 0 1 0 13.2 0 a6.6 6.6 0 1 0 -13.2 0zM747.33 163.92L748.76 167.37L757.81 163.62L756.38 160.17zM750.5 161.89 a6.6 6.6 0 1 0 13.2 0 a6.6 6.6 0 1 0 -13.2 0zM611.1 192.88 a71.19 71.19 0 1 0 142.38 0 a71.19 71.19 0 1 0 -142.38 0z" fill="#488fdb"></path><path d="M634.26 140.33 A70.1936 70.1936 0 0 1 751.78 177.41M751.78 177.41 A142.3872 142.3872 0 0 0 634.26 140.33" fill="#2672c3" fill-rule="nonzero"></path><path d="M660 158.99 a14.24 14.24 0 1 0 28.48 0 a14.24 14.24 0 1 0 -28.48 0zM626.09 189.35 a14.24 14.24 0 1 0 28.48 0 a14.24 14.24 0 1 0 -28.48 0zM741.22 213 a4.27 4.27 0 1 0 8.54 0 a4.27 4.27 0 1 0 -8.54 0zM720.71 155.72 a9.97 9.97 0 1 0 19.94 0 a9.97 9.97 0 1 0 -19.94 0zM661.19 237.39 a14.24 14.24 0 1 0 28.48 0 a14.24 14.24 0 1 0 -28.48 0zM684.33 206.62 a4.98 4.98 0 1 0 9.96 0 a4.98 4.98 0 1 0 -9.96 0zM708.12 211.24 a6.41 6.41 0 1 0 12.82 0 a6.41 6.41 0 1 0 -12.82 0zM629.72 233.03 a8.54 8.54 0 1 0 17.08 0 a8.54 8.54 0 1 0 -17.08 0zM704.26 241.98 a8.54 8.54 0 1 0 17.08 0 a8.54 8.54 0 1 0 -17.08 0zM698.58 128.74 a3.56 3.56 0 1 0 7.12 0 a3.56 3.56 0 1 0 -7.12 0z" fill="#2672c3" fill-rule="nonzero"></path><path d="M1175.68 170.75L1175.68 174.48L1199.3 174.48L1199.3 170.75zM1192.7 172.61 a6.6 6.6 0 1 0 13.2 0 a6.6 6.6 0 1 0 -13.2 0zM1170.98 198.13L1169.55 201.57L1197.9 213.31L1199.33 209.87zM1192.02 211.59 a6.6 6.6 0 1 0 13.2 0 a6.6 6.6 0 1 0 -13.2 0zM1156.15 221.62L1153.52 224.25L1175.85 246.58L1178.48 243.95zM1170.57 245.27 a6.6 6.6 0 1 0 13.2 0 a6.6 6.6 0 1 0 -13.2 0zM1133.47 237.65L1130.02 239.08L1142.96 270.3L1146.4 268.88zM1138.08 269.59 a6.6 6.6 0 1 0 13.2 0 a6.6 6.6 0 1 0 -13.2 0zM1106.37 243.78L1102.65 243.78L1102.65 264.1L1106.37 264.1zM1097.91 264.1 a6.6 6.6 0 1 0 13.2 0 a6.6 6.6 0 1 0 -13.2 0zM1079 239.08L1075.55 237.65L1065.25 262.53L1068.69 263.96zM1060.37 263.24 a6.6 6.6 0 1 0 13.2 0 a6.6 6.6 0 1 0 -13.2 0zM1055.5 224.25L1052.87 221.62L1029.41 245.08L1032.04 247.72zM1024.13 246.4 a6.6 6.6 0 1 0 13.2 0 a6.6 6.6 0 1 0 -13.2 0zM1039.47 201.57L1038.05 198.13L1010.31 209.61L1011.74 213.06zM1004.42 211.34 a6.6 6.6 0 1 0 13.2 0 a6.6 6.6 0 1 0 -13.2 0zM1033.34 174.48L1033.34 170.75L1009.05 170.75L1009.05 174.48zM1002.45 172.61 a6.6 6.6 0 1 0 13.2 0 a6.6 6.6 0 1 0 -13.2 0zM1038.05 147.1L1039.47 143.65L1030.72 140.03L1029.3 143.47zM1023.41 141.75 a6.6 6.6 0 1 0 13.2 0 a6.6 6.6 0 1 0 -13.2 0zM1052.87 123.61L1055.5 120.97L1044.47 109.94L1041.84 112.57zM1036.56 111.26 a6.6 6.6 0 1 0 13.2 0 a6.6 6.6 0 1 0 -13.2 0zM1075.55 107.57L1079 106.15L1067.82 79.17L1064.38 80.6zM1059.5 79.88 a6.6 6.6 0 1 0 13.2 0 a6.6 6.6 0 1 0 -13.2 0zM1102.65 101.44L1106.37 101.44L1106.37 91.73L1102.65 91.73zM1097.91 91.73 a6.6 6.6 0 1 0 13.2 0 a6.6 6.6 0 1 0 -13.2 0zM1130.02 106.15L1133.47 107.57L1141.72 87.66L1138.27 86.24zM1133.39 86.95 a6.6 6.6 0 1 0 13.2 0 a6.6 6.6 0 1 0 -13.2 0zM1153.52 120.97L1156.15 123.61L1167.28 112.48L1164.64 109.85zM1159.36 111.16 a6.6 6.6 0 1 0 13.2 0 a6.6 6.6 0 1 0 -13.2 0zM1169.55 143.65L1170.98 147.1L1200.05 135.06L1198.62 131.61zM1192.74 133.33 a6.6 6.6 0 1 0 13.2 0 a6.6 6.6 0 1 0 -13.2 0zM1033.32 172.61 a71.19 71.19 0 1 0 142.38 0 a71.19 71.19 0 1 0 -142.38 0z" fill="#488fdb"></path><path d="M1033.35 174.87 A70.1936 70.1936 0 0 1 1138 109.79M1138 109.79 A142.3872 142.3872 0 0 0 1033.35 174.87" fill="#2672c3" fill-rule="nonzero"></path><path d="M1129.73 151.29 a14.24 14.24 0 1 0 28.48 0 a14.24 14.24 0 1 0 -28.48 0zM1091.18 215.48 a14.24 14.24 0 1 0 28.48 0 a14.24 14.24 0 1 0 -28.48 0zM1148.21 215.18 a5.7 5.7 0 1 0 11.4 0 a5.7 5.7 0 1 0 -11.4 0zM1088.07 161.34 a14.24 14.24 0 1 0 28.48 0 a14.24 14.24 0 1 0 -28.48 0zM1047.87 145.9 a14.24 14.24 0 1 0 28.48 0 a14.24 14.24 0 1 0 -28.48 0zM1117.88 112.91 a7.83 7.83 0 1 0 15.66 0 a7.83 7.83 0 1 0 -15.66 0zM1049.91 215.08 a6.41 6.41 0 1 0 12.82 0 a6.41 6.41 0 1 0 -12.82 0zM1045.58 174.24 a2.85 2.85 0 1 0 5.7 0 a2.85 2.85 0 1 0 -5.7 0zM1083.28 113.27 a9.97 9.97 0 1 0 19.94 0 a9.97 9.97 0 1 0 -19.94 0zM1138.17 182.65 a2.85 2.85 0 1 0 5.7 0 a2.85 2.85 0 1 0 -5.7 0z" fill="#2672c3" fill-rule="nonzero"></path><path d="M956.56 337.87L956.56 339.73L965.73 339.73L965.73 337.87zM962.43 338.8 a3.3 3.3 0 1 0 6.6 0 a3.3 3.3 0 1 0 -6.6 0zM954.21 351.56L953.5 353.28L966.66 358.73L967.38 357.01zM963.72 357.87 a3.3 3.3 0 1 0 6.6 0 a3.3 3.3 0 1 0 -6.6 0zM946.8 363.3L945.48 364.62L956.02 375.16L957.34 373.84zM953.38 374.5 a3.3 3.3 0 1 0 6.6 0 a3.3 3.3 0 1 0 -6.6 0zM935.46 371.32L933.74 372.03L939.46 385.86L941.19 385.15zM937.03 385.5 a3.3 3.3 0 1 0 6.6 0 a3.3 3.3 0 1 0 -6.6 0zM921.91 374.38L920.05 374.38L920.05 379.15L921.91 379.15zM917.68 379.15 a3.3 3.3 0 1 0 6.6 0 a3.3 3.3 0 1 0 -6.6 0zM908.22 372.03L906.5 371.32L902.19 381.73L903.91 382.44zM899.75 382.09 a3.3 3.3 0 1 0 6.6 0 a3.3 3.3 0 1 0 -6.6 0zM896.48 364.62L895.16 363.3L888.14 370.32L889.45 371.64zM885.49 370.98 a3.3 3.3 0 1 0 6.6 0 a3.3 3.3 0 1 0 -6.6 0zM888.46 353.28L887.75 351.56L876.98 356.01L877.7 357.74zM874.04 356.87 a3.3 3.3 0 1 0 6.6 0 a3.3 3.3 0 1 0 -6.6 0zM885.39 339.73L885.39 337.87L869.51 337.87L869.51 339.73zM866.21 338.8 a3.3 3.3 0 1 0 6.6 0 a3.3 3.3 0 1 0 -6.6 0zM887.75 326.04L888.46 324.32L874.44 318.51L873.73 320.24zM870.79 319.38 a3.3 3.3 0 1 0 6.6 0 a3.3 3.3 0 1 0 -6.6 0zM895.16 314.3L896.48 312.98L884.67 301.18L883.36 302.49zM880.71 301.83 a3.3 3.3 0 1 0 6.6 0 a3.3 3.3 0 1 0 -6.6 0zM906.5 306.28L908.22 305.57L904.76 297.21L903.04 297.93zM900.6 297.57 a3.3 3.3 0 1 0 6.6 0 a3.3 3.3 0 1 0 -6.6 0zM920.05 303.21L921.91 303.21L921.91 292.65L920.05 292.65zM917.68 292.65 a3.3 3.3 0 1 0 6.6 0 a3.3 3.3 0 1 0 -6.6 0zM933.74 305.57L935.46 306.28L940.76 293.46L939.04 292.75zM936.6 293.11 a3.3 3.3 0 1 0 6.6 0 a3.3 3.3 0 1 0 -6.6 0zM945.48 312.98L946.8 314.3L950.23 310.87L948.91 309.55zM946.27 310.21 a3.3 3.3 0 1 0 6.6 0 a3.3 3.3 0 1 0 -6.6 0zM953.5 324.32L954.21 326.04L962.92 322.43L962.21 320.71zM959.27 321.57 a3.3 3.3 0 1 0 6.6 0 a3.3 3.3 0 1 0 -6.6 0zM885.38 338.8 a35.6 35.6 0 1 0 71.2 0 a35.6 35.6 0 1 0 -71.2 0z" fill="#488fdb"></path><path d="M932.16 305 A34.5968 34.5968 0 0 1 944.71 365.33M944.71 365.33 A71.1936 71.1936 0 0 0 932.16 305" fill="#2672c3" fill-rule="nonzero"></path><path d="M902.32 337.9 a7.12 7.12 0 1 0 14.24 0 a7.12 7.12 0 1 0 -14.24 0zM901.26 365.93 a4.27 4.27 0 1 0 8.54 0 a4.27 4.27 0 1 0 -8.54 0zM891.58 320.14 a3.92 3.92 0 1 0 7.84 0 a3.92 3.92 0 1 0 -7.84 0zM934.34 329.09 a7.12 7.12 0 1 0 14.24 0 a7.12 7.12 0 1 0 -14.24 0zM923.2 366.96 a6.05 6.05 0 1 0 12.1 0 a6.05 6.05 0 1 0 -12.1 0zM932.21 312.54 a3.2 3.2 0 1 0 6.4 0 a3.2 3.2 0 1 0 -6.4 0zM912.57 316.61 a6.41 6.41 0 1 0 12.82 0 a6.41 6.41 0 1 0 -12.82 0zM891.2 348.03 a3.56 3.56 0 1 0 7.12 0 a3.56 3.56 0 1 0 -7.12 0zM934.21 346.24 a3.2 3.2 0 1 0 6.4 0 a3.2 3.2 0 1 0 -6.4 0zM947.42 349.66 a1.78 1.78 0 1 0 3.56 0 a1.78 1.78 0 1 0 -3.56 0z" fill="#2672c3" fill-rule="nonzero"></path><path d="M1384.11 69.97L1384.11 71.83L1393.41 71.83L1393.41 69.97zM1390.11 70.9 a3.3 3.3 0 1 0 6.6 0 a3.3 3.3 0 1 0 -6.6 0zM1381.76 83.65L1381.05 85.38L1385.98 87.42L1386.69 85.7zM1383.04 86.56 a3.3 3.3 0 1 0 6.6 0 a3.3 3.3 0 1 0 -6.6 0zM1374.35 95.4L1373.03 96.72L1383.52 107.21L1384.84 105.89zM1380.88 106.55 a3.3 3.3 0 1 0 6.6 0 a3.3 3.3 0 1 0 -6.6 0zM1363.01 103.42L1361.28 104.13L1367.35 118.77L1369.07 118.06zM1364.91 118.42 a3.3 3.3 0 1 0 6.6 0 a3.3 3.3 0 1 0 -6.6 0zM1349.46 106.48L1347.59 106.48L1347.59 116.72L1349.46 116.72zM1345.23 116.72 a3.3 3.3 0 1 0 6.6 0 a3.3 3.3 0 1 0 -6.6 0zM1335.77 104.13L1334.05 103.42L1328.14 117.69L1329.86 118.4zM1325.7 118.05 a3.3 3.3 0 1 0 6.6 0 a3.3 3.3 0 1 0 -6.6 0zM1324.02 96.72L1322.71 95.4L1316.6 101.51L1317.91 102.83zM1313.95 102.17 a3.3 3.3 0 1 0 6.6 0 a3.3 3.3 0 1 0 -6.6 0zM1316.01 85.38L1315.29 83.65L1310.55 85.62L1311.27 87.34zM1307.61 86.48 a3.3 3.3 0 1 0 6.6 0 a3.3 3.3 0 1 0 -6.6 0zM1312.94 71.83L1312.94 69.97L1307.93 69.97L1307.93 71.83zM1304.63 70.9 a3.3 3.3 0 1 0 6.6 0 a3.3 3.3 0 1 0 -6.6 0zM1315.29 58.14L1316.01 56.42L1300.13 49.84L1299.41 51.56zM1296.47 50.7 a3.3 3.3 0 1 0 6.6 0 a3.3 3.3 0 1 0 -6.6 0zM1322.71 46.39L1324.02 45.08L1316.15 37.21L1314.84 38.52zM1312.19 37.87 a3.3 3.3 0 1 0 6.6 0 a3.3 3.3 0 1 0 -6.6 0zM1334.05 38.38L1335.77 37.67L1333.7 32.67L1331.98 33.38zM1329.54 33.02 a3.3 3.3 0 1 0 6.6 0 a3.3 3.3 0 1 0 -6.6 0zM1347.59 35.31L1349.46 35.31L1349.46 27.71L1347.59 27.71zM1345.23 27.71 a3.3 3.3 0 1 0 6.6 0 a3.3 3.3 0 1 0 -6.6 0zM1361.28 37.67L1363.01 38.38L1365.71 31.84L1363.99 31.12zM1361.55 31.48 a3.3 3.3 0 1 0 6.6 0 a3.3 3.3 0 1 0 -6.6 0zM1373.03 45.08L1374.35 46.39L1382.99 37.75L1381.67 36.44zM1379.03 37.09 a3.3 3.3 0 1 0 6.6 0 a3.3 3.3 0 1 0 -6.6 0zM1381.05 56.42L1381.76 58.14L1391.88 53.95L1391.17 52.22zM1388.23 53.09 a3.3 3.3 0 1 0 6.6 0 a3.3 3.3 0 1 0 -6.6 0zM1312.93 70.9 a35.6 35.6 0 1 0 71.2 0 a35.6 35.6 0 1 0 -71.2 0z" fill="#488fdb"></path><path d="M1312.95 69.67 A34.5968 34.5968 0 0 1 1367.32 40.66M1367.32 40.66 A71.1936 71.1936 0 0 0 1312.95 69.67" fill="#2672c3" fill-rule="nonzero"></path><path d="M1334.59 42.44 a6.05 6.05 0 1 0 12.1 0 a6.05 6.05 0 1 0 -12.1 0zM1322.55 54.55 a4.63 4.63 0 1 0 9.26 0 a4.63 4.63 0 1 0 -9.26 0zM1337.51 80.41 a7.12 7.12 0 1 0 14.24 0 a7.12 7.12 0 1 0 -14.24 0zM1374.88 59.6 a3.56 3.56 0 1 0 7.12 0 a3.56 3.56 0 1 0 -7.12 0zM1328.84 98.03 a3.92 3.92 0 1 0 7.84 0 a3.92 3.92 0 1 0 -7.84 0zM1350.32 66.37 a1.42 1.42 0 1 0 2.84 0 a1.42 1.42 0 1 0 -2.84 0zM1376.28 77.14 a3.56 3.56 0 1 0 7.12 0 a3.56 3.56 0 1 0 -7.12 0zM1352.15 93.67 a2.14 2.14 0 1 0 4.28 0 a2.14 2.14 0 1 0 -4.28 0zM1322.36 86.32 a2.85 2.85 0 1 0 5.7 0 a2.85 2.85 0 1 0 -5.7 0zM1319.48 66.73 a1.78 1.78 0 1 0 3.56 0 a1.78 1.78 0 1 0 -3.56 0z" fill="#2672c3" fill-rule="nonzero"></path><path d="M172.25 435.97L172.25 439.23L197.63 439.23L197.63 435.97zM191.85 437.6 a5.78 5.78 0 1 0 11.56 0 a5.78 5.78 0 1 0 -11.56 0zM168.13 459.92L166.89 462.94L182.7 469.49L183.95 466.48zM177.55 467.98 a5.78 5.78 0 1 0 11.56 0 a5.78 5.78 0 1 0 -11.56 0zM155.16 480.48L152.86 482.79L162.04 491.97L164.35 489.67zM157.42 490.82 a5.78 5.78 0 1 0 11.56 0 a5.78 5.78 0 1 0 -11.56 0zM135.31 494.51L132.3 495.76L140.94 516.61L143.95 515.36zM136.66 515.98 a5.78 5.78 0 1 0 11.56 0 a5.78 5.78 0 1 0 -11.56 0zM111.61 499.87L108.35 499.87L108.35 530.22L111.61 530.22zM104.2 530.22 a5.78 5.78 0 1 0 11.56 0 a5.78 5.78 0 1 0 -11.56 0zM87.65 495.76L84.64 494.51L75.45 516.68L78.47 517.93zM71.18 517.31 a5.78 5.78 0 1 0 11.56 0 a5.78 5.78 0 1 0 -11.56 0zM67.1 482.79L64.79 480.48L52.15 493.12L54.45 495.43zM47.52 494.28 a5.78 5.78 0 1 0 11.56 0 a5.78 5.78 0 1 0 -11.56 0zM53.07 462.94L51.82 459.92L30.53 468.74L31.78 471.75zM25.38 470.25 a5.78 5.78 0 1 0 11.56 0 a5.78 5.78 0 1 0 -11.56 0zM47.7 439.23L47.7 435.97L18.78 435.97L18.78 439.23zM13 437.6 a5.78 5.78 0 1 0 11.56 0 a5.78 5.78 0 1 0 -11.56 0zM51.82 415.28L53.07 412.26L42.66 407.95L41.41 410.96zM36.25 409.46 a5.78 5.78 0 1 0 11.56 0 a5.78 5.78 0 1 0 -11.56 0zM64.79 394.72L67.1 392.41L59.11 384.43L56.81 386.74zM52.18 385.58 a5.78 5.78 0 1 0 11.56 0 a5.78 5.78 0 1 0 -11.56 0zM84.64 380.69L87.65 379.44L78.09 356.36L75.08 357.6zM70.8 356.98 a5.78 5.78 0 1 0 11.56 0 a5.78 5.78 0 1 0 -11.56 0zM108.35 375.33L111.61 375.33L111.61 353.76L108.35 353.76zM104.2 353.76 a5.78 5.78 0 1 0 11.56 0 a5.78 5.78 0 1 0 -11.56 0zM132.3 379.44L135.31 380.69L140.01 369.35L137 368.1zM132.73 368.72 a5.78 5.78 0 1 0 11.56 0 a5.78 5.78 0 1 0 -11.56 0zM152.86 392.41L155.16 394.72L164.16 385.72L161.86 383.41zM157.23 384.56 a5.78 5.78 0 1 0 11.56 0 a5.78 5.78 0 1 0 -11.56 0zM166.89 412.26L168.13 415.28L185.15 408.23L183.9 405.21zM178.75 406.72 a5.78 5.78 0 1 0 11.56 0 a5.78 5.78 0 1 0 -11.56 0zM47.69 437.6 a62.29 62.29 0 1 0 124.58 0 a62.29 62.29 0 1 0 -124.58 0z" fill="#488fdb"></path><path d="M170.35 422.24 A61.294399999999996 61.294399999999996 0 0 1 93.21 497.6M93.21 497.6 A124.58879999999999 124.58879999999999 0 0 0 170.35 422.24" fill="#2672c3" fill-rule="nonzero"></path><path d="M120.21 401.01 a12.46 12.46 0 1 0 24.92 0 a12.46 12.46 0 1 0 -24.92 0zM105.79 477.81 a12.46 12.46 0 1 0 24.92 0 a12.46 12.46 0 1 0 -24.92 0zM64.81 404.05 a12.46 12.46 0 1 0 24.92 0 a12.46 12.46 0 1 0 -24.92 0zM127.3 438.4 a12.46 12.46 0 1 0 24.92 0 a12.46 12.46 0 1 0 -24.92 0zM98.6 419.09 a6.23 6.23 0 1 0 12.46 0 a6.23 6.23 0 1 0 -12.46 0zM62.36 430.13 a3.11 3.11 0 1 0 6.22 0 a3.11 3.11 0 1 0 -6.22 0zM93.64 382.35 a4.98 4.98 0 1 0 9.96 0 a4.98 4.98 0 1 0 -9.96 0zM70.53 483.2 a4.36 4.36 0 1 0 8.72 0 a4.36 4.36 0 1 0 -8.72 0zM60.9 455.49 a9.97 9.97 0 1 0 19.94 0 a9.97 9.97 0 1 0 -19.94 0zM154.98 414.52 a5.61 5.61 0 1 0 11.22 0 a5.61 5.61 0 1 0 -11.22 0z" fill="#2672c3" fill-rule="nonzero"></path><path d="M607.88 486.02L607.88 488.35L617.52 488.35L617.52 486.02zM613.39 487.19 a4.13 4.13 0 1 0 8.26 0 a4.13 4.13 0 1 0 -8.26 0zM604.94 503.13L604.04 505.28L618.38 511.22L619.27 509.07zM614.7 510.15 a4.13 4.13 0 1 0 8.26 0 a4.13 4.13 0 1 0 -8.26 0zM595.67 517.82L594.02 519.46L605.9 531.34L607.55 529.69zM602.6 530.52 a4.13 4.13 0 1 0 8.26 0 a4.13 4.13 0 1 0 -8.26 0zM581.49 527.84L579.34 528.73L586.29 545.51L588.45 544.62zM583.24 545.07 a4.13 4.13 0 1 0 8.26 0 a4.13 4.13 0 1 0 -8.26 0zM564.56 531.67L562.23 531.67L562.23 551.41L564.56 551.41zM559.26 551.41 a4.13 4.13 0 1 0 8.26 0 a4.13 4.13 0 1 0 -8.26 0zM547.45 528.73L545.3 527.84L537.35 547.02L539.5 547.92zM534.29 547.47 a4.13 4.13 0 1 0 8.26 0 a4.13 4.13 0 1 0 -8.26 0zM532.77 519.46L531.12 517.82L527.09 521.84L528.74 523.49zM523.79 522.66 a4.13 4.13 0 1 0 8.26 0 a4.13 4.13 0 1 0 -8.26 0zM522.75 505.28L521.85 503.13L508.25 508.77L509.14 510.92zM504.56 509.85 a4.13 4.13 0 1 0 8.26 0 a4.13 4.13 0 1 0 -8.26 0zM518.91 488.35L518.91 486.02L508.95 486.02L508.95 488.35zM504.82 487.19 a4.13 4.13 0 1 0 8.26 0 a4.13 4.13 0 1 0 -8.26 0zM521.85 471.24L522.75 469.09L512.84 464.99L511.95 467.14zM508.27 466.06 a4.13 4.13 0 1 0 8.26 0 a4.13 4.13 0 1 0 -8.26 0zM531.12 456.56L532.77 454.91L520.14 442.28L518.49 443.93zM515.18 443.1 a4.13 4.13 0 1 0 8.26 0 a4.13 4.13 0 1 0 -8.26 0zM545.3 446.54L547.45 445.65L542.7 434.18L540.55 435.07zM537.49 434.63 a4.13 4.13 0 1 0 8.26 0 a4.13 4.13 0 1 0 -8.26 0zM562.23 442.71L564.56 442.71L564.56 425.69L562.23 425.69zM559.26 425.69 a4.13 4.13 0 1 0 8.26 0 a4.13 4.13 0 1 0 -8.26 0zM579.34 445.65L581.49 446.54L586.49 434.48L584.33 433.59zM581.28 434.03 a4.13 4.13 0 1 0 8.26 0 a4.13 4.13 0 1 0 -8.26 0zM594.02 454.91L595.67 456.56L604.45 447.78L602.81 446.13zM599.5 446.95 a4.13 4.13 0 1 0 8.26 0 a4.13 4.13 0 1 0 -8.26 0zM604.04 469.09L604.94 471.24L610.23 469.05L609.34 466.9zM605.65 467.97 a4.13 4.13 0 1 0 8.26 0 a4.13 4.13 0 1 0 -8.26 0zM518.89 487.19 a44.5 44.5 0 1 0 89 0 a44.5 44.5 0 1 0 -89 0z" fill="#488fdb"></path><path d="M554.04 443.69 A43.496 43.496 0 0 1 605.77 500.74M605.77 500.74 A88.992 88.992 0 0 0 554.04 443.69" fill="#2672c3" fill-rule="nonzero"></path><path d="M548.64 468.43 a8.9 8.9 0 1 0 17.8 0 a8.9 8.9 0 1 0 -17.8 0zM563.71 493.35 a8.9 8.9 0 1 0 17.8 0 a8.9 8.9 0 1 0 -17.8 0zM530.22 513.59 a6.67 6.67 0 1 0 13.34 0 a6.67 6.67 0 1 0 -13.34 0zM519.2 486.42 a2.67 2.67 0 1 0 5.34 0 a2.67 2.67 0 1 0 -5.34 0zM590.6 493.87 a7.12 7.12 0 1 0 14.24 0 a7.12 7.12 0 1 0 -14.24 0zM581.21 458.77 a6.67 6.67 0 1 0 13.34 0 a6.67 6.67 0 1 0 -13.34 0zM552.66 516.03 a4 4 0 1 0 8 0 a4 4 0 1 0 -8 0zM569.86 515.33 a4 4 0 1 0 8 0 a4 4 0 1 0 -8 0zM532.71 456.06 a1.78 1.78 0 1 0 3.56 0 a1.78 1.78 0 1 0 -3.56 0zM532.66 491.55 a5.34 5.34 0 1 0 10.68 0 a5.34 5.34 0 1 0 -10.68 0z" fill="#2672c3" fill-rule="nonzero"></path><path d="M1294.49 475.04L1294.49 477.37L1312.68 477.37L1312.68 475.04zM1308.55 476.2 a4.13 4.13 0 1 0 8.26 0 a4.13 4.13 0 1 0 -8.26 0zM1291.55 492.15L1290.66 494.3L1308.61 501.74L1309.5 499.59zM1304.93 500.66 a4.13 4.13 0 1 0 8.26 0 a4.13 4.13 0 1 0 -8.26 0zM1282.29 506.83L1280.64 508.48L1285.02 512.86L1286.67 511.22zM1281.72 512.04 a4.13 4.13 0 1 0 8.26 0 a4.13 4.13 0 1 0 -8.26 0zM1268.11 516.85L1265.96 517.75L1269.08 525.27L1271.23 524.38zM1266.02 524.83 a4.13 4.13 0 1 0 8.26 0 a4.13 4.13 0 1 0 -8.26 0zM1251.18 520.69L1248.85 520.69L1248.85 527.31L1251.18 527.31zM1245.88 527.31 a4.13 4.13 0 1 0 8.26 0 a4.13 4.13 0 1 0 -8.26 0zM1234.07 517.75L1231.91 516.85L1228.16 525.91L1230.31 526.8zM1225.11 526.35 a4.13 4.13 0 1 0 8.26 0 a4.13 4.13 0 1 0 -8.26 0zM1219.38 508.48L1217.73 506.83L1209.62 514.95L1211.26 516.6zM1206.31 515.77 a4.13 4.13 0 1 0 8.26 0 a4.13 4.13 0 1 0 -8.26 0zM1209.36 494.3L1208.47 492.15L1195.32 497.6L1196.22 499.75zM1191.64 498.67 a4.13 4.13 0 1 0 8.26 0 a4.13 4.13 0 1 0 -8.26 0zM1205.53 477.37L1205.53 475.04L1196.5 475.04L1196.5 477.37zM1192.37 476.2 a4.13 4.13 0 1 0 8.26 0 a4.13 4.13 0 1 0 -8.26 0zM1208.47 460.26L1209.36 458.11L1197.01 452.99L1196.12 455.14zM1192.43 454.07 a4.13 4.13 0 1 0 8.26 0 a4.13 4.13 0 1 0 -8.26 0zM1217.73 445.58L1219.38 443.93L1208.83 433.38L1207.18 435.03zM1203.88 434.2 a4.13 4.13 0 1 0 8.26 0 a4.13 4.13 0 1 0 -8.26 0zM1231.91 435.56L1234.07 434.66L1229.93 424.69L1227.78 425.58zM1224.73 425.13 a4.13 4.13 0 1 0 8.26 0 a4.13 4.13 0 1 0 -8.26 0zM1248.85 431.72L1251.18 431.72L1251.18 424.67L1248.85 424.67zM1245.88 424.67 a4.13 4.13 0 1 0 8.26 0 a4.13 4.13 0 1 0 -8.26 0zM1265.96 434.66L1268.11 435.56L1274.93 419.08L1272.78 418.19zM1269.73 418.64 a4.13 4.13 0 1 0 8.26 0 a4.13 4.13 0 1 0 -8.26 0zM1280.64 443.93L1282.29 445.58L1287.83 440.03L1286.18 438.38zM1282.88 439.21 a4.13 4.13 0 1 0 8.26 0 a4.13 4.13 0 1 0 -8.26 0zM1290.66 458.11L1291.55 460.26L1297.06 457.98L1296.17 455.83zM1292.48 456.9 a4.13 4.13 0 1 0 8.26 0 a4.13 4.13 0 1 0 -8.26 0zM1205.51 476.2 a44.5 44.5 0 1 0 89 0 a44.5 44.5 0 1 0 -89 0z" fill="#488fdb"></path><path d="M1290.73 458.27 A43.496 43.496 0 0 1 1245.27 520.45M1245.27 520.45 A88.992 88.992 0 0 0 1290.73 458.27" fill="#2672c3" fill-rule="nonzero"></path><path d="M1225.34 459.19 a8.9 8.9 0 1 0 17.8 0 a8.9 8.9 0 1 0 -17.8 0zM1220.14 505.3 a7.12 7.12 0 1 0 14.24 0 a7.12 7.12 0 1 0 -14.24 0zM1206.13 480.67 a4.45 4.45 0 1 0 8.9 0 a4.45 4.45 0 1 0 -8.9 0zM1230.6 438.9 a2.22 2.22 0 1 0 4.44 0 a2.22 2.22 0 1 0 -4.44 0zM1282 453.59 a2.67 2.67 0 1 0 5.34 0 a2.67 2.67 0 1 0 -5.34 0zM1278.74 495.29 a5.34 5.34 0 1 0 10.68 0 a5.34 5.34 0 1 0 -10.68 0zM1264.93 475.63 a8.01 8.01 0 1 0 16.02 0 a8.01 8.01 0 1 0 -16.02 0zM1254.95 440.88 a7.12 7.12 0 1 0 14.24 0 a7.12 7.12 0 1 0 -14.24 0zM1242.94 499.89 a6.23 6.23 0 1 0 12.46 0 a6.23 6.23 0 1 0 -12.46 0zM1243.44 476.56 a4 4 0 1 0 8 0 a4 4 0 1 0 -8 0z" fill="#2672c3" fill-rule="nonzero"></path><path d="M284.81 132.01L284.81 135.74L298.82 135.74L298.82 132.01zM292.22 133.88 a6.6 6.6 0 1 0 13.2 0 a6.6 6.6 0 1 0 -13.2 0zM280.11 159.39L278.68 162.83L306.17 174.22L307.6 170.78zM300.28 172.5 a6.6 6.6 0 1 0 13.2 0 a6.6 6.6 0 1 0 -13.2 0zM265.29 182.88L262.65 185.52L281.84 204.71L284.48 202.07zM276.56 203.39 a6.6 6.6 0 1 0 13.2 0 a6.6 6.6 0 1 0 -13.2 0zM242.6 198.92L239.16 200.34L246.69 218.53L250.14 217.11zM241.82 217.82 a6.6 6.6 0 1 0 13.2 0 a6.6 6.6 0 1 0 -13.2 0zM215.51 205.05L211.78 205.05L211.78 217.63L215.51 217.63zM207.04 217.63 a6.6 6.6 0 1 0 13.2 0 a6.6 6.6 0 1 0 -13.2 0zM188.13 200.34L184.69 198.92L178.58 213.65L182.03 215.08zM173.71 214.36 a6.6 6.6 0 1 0 13.2 0 a6.6 6.6 0 1 0 -13.2 0zM164.64 185.52L162 182.88L139.99 204.9L142.63 207.53zM134.71 206.21 a6.6 6.6 0 1 0 13.2 0 a6.6 6.6 0 1 0 -13.2 0zM148.61 162.83L147.18 159.39L114.95 172.74L116.38 176.18zM109.07 174.46 a6.6 6.6 0 1 0 13.2 0 a6.6 6.6 0 1 0 -13.2 0zM142.48 135.74L142.48 132.01L126.16 132.01L126.16 135.74zM119.56 133.88 a6.6 6.6 0 1 0 13.2 0 a6.6 6.6 0 1 0 -13.2 0zM147.18 108.36L148.61 104.92L127.92 96.35L126.49 99.8zM120.61 98.07 a6.6 6.6 0 1 0 13.2 0 a6.6 6.6 0 1 0 -13.2 0zM162 84.87L164.64 82.24L140.97 58.57L138.34 61.2zM133.05 59.89 a6.6 6.6 0 1 0 13.2 0 a6.6 6.6 0 1 0 -13.2 0zM184.69 68.84L188.13 67.41L184.55 58.77L181.11 60.2zM176.23 59.49 a6.6 6.6 0 1 0 13.2 0 a6.6 6.6 0 1 0 -13.2 0zM211.78 62.71L215.51 62.71L215.51 36.7L211.78 36.7zM207.04 36.7 a6.6 6.6 0 1 0 13.2 0 a6.6 6.6 0 1 0 -13.2 0zM239.16 67.41L242.6 68.84L247.39 57.28L243.95 55.85zM239.07 56.57 a6.6 6.6 0 1 0 13.2 0 a6.6 6.6 0 1 0 -13.2 0zM262.65 82.24L265.29 84.87L282.7 67.45L280.07 64.82zM274.78 66.14 a6.6 6.6 0 1 0 13.2 0 a6.6 6.6 0 1 0 -13.2 0zM278.68 104.92L280.11 108.36L297.49 101.17L296.06 97.72zM290.17 99.44 a6.6 6.6 0 1 0 13.2 0 a6.6 6.6 0 1 0 -13.2 0zM142.45 133.88 a71.19 71.19 0 1 0 142.38 0 a71.19 71.19 0 1 0 -142.38 0z" fill="#488fdb"></path><path d="M283.73 121.38 A70.1936 70.1936 0 0 1 189.56 200.87M189.56 200.87 A142.3872 142.3872 0 0 0 283.73 121.38" fill="#2672c3" fill-rule="nonzero"></path><path d="M155.02 94.81 a2.85 2.85 0 1 0 5.7 0 a2.85 2.85 0 1 0 -5.7 0zM162.59 119.21 a12.1 12.1 0 1 0 24.2 0 a12.1 12.1 0 1 0 -24.2 0zM194.24 177.68 a14.24 14.24 0 1 0 28.48 0 a14.24 14.24 0 1 0 -28.48 0zM250.15 158.96 a14.24 14.24 0 1 0 28.48 0 a14.24 14.24 0 1 0 -28.48 0zM195.47 74.15 a10.68 10.68 0 1 0 21.36 0 a10.68 10.68 0 1 0 -21.36 0zM149.24 155.7 a12.1 12.1 0 1 0 24.2 0 a12.1 12.1 0 1 0 -24.2 0zM211.03 138.05 a14.24 14.24 0 1 0 28.48 0 a14.24 14.24 0 1 0 -28.48 0zM247.01 105.64 a14.24 14.24 0 1 0 28.48 0 a14.24 14.24 0 1 0 -28.48 0zM192.55 148.15 a2.85 2.85 0 1 0 5.7 0 a2.85 2.85 0 1 0 -5.7 0zM240.64 75.35 a4.27 4.27 0 1 0 8.54 0 a4.27 4.27 0 1 0 -8.54 0z" fill="#2672c3" fill-rule="nonzero"></path></g><defs><mask id="SvgjsMask1000"><rect width="1440" height="560" fill="#ffffff"></rect></mask></defs></svg>